<svg xmlns="http://www.w3.org/2000/svg" viewBox="0 0 1078 265" role="img" aria-label="Логотип SA">
  <g fill="currentColor" fill-rule="evenodd">
    <path d="M 0 111 L 0 125 L 400 125 L 500 224 L 519 224 L 406 111 Z"/><path d="M 496 50 L 491 62 L 491 67 L 496 78 L 506 86 L 541 99 L 546 103 L 549 109 L 548 119 L 541 127 L 534 130 L 523 130 L 514 127 L 505 120 L 499 110 L 498 102 L 496 102 L 495 113 L 497 133 L 521 137 L 543 135 L 516 188 L 502 202 L 531 202 L 525 197 L 523 190 L 536 164 L 569 164 L 582 193 L 581 197 L 575 202 L 594 202 L 595 201 L 555 119 L 556 106 L 554 101 L 546 93 L 506 77 L 499 70 L 496 64 Z"/><path d="M 553 131 L 566 156 L 565 157 L 540 156 Z"/><path d="M 510 38 L 504 45 L 502 51 L 502 59 L 505 66 L 509 70 L 519 75 L 549 86 L 559 95 L 563 103 L 563 120 L 602 201 L 620 202 L 606 190 L 600 181 L 568 114 L 568 97 L 562 86 L 552 79 L 518 66 L 509 56 L 509 52 L 515 44 L 524 40 L 540 40 L 553 45 L 559 51 L 561 61 L 563 61 L 563 36 L 545 32 L 527 32 Z"/><path d="M 559 25 L 658 125 L 1077 125 L 1077 112 L 664 111 L 578 25 Z"/>
  </g>
</svg>
